<mxfile host="app.diagrams.net" modified="2024-07-31T01:34:59.056Z" agent="Mozilla/5.0 (Macintosh; Intel Mac OS X 10_15_7) AppleWebKit/537.36 (KHTML, like Gecko) Chrome/127.0.0.0 Safari/537.36" etag="PugE8sOk1UUPzsBBil_U" version="24.6.4" type="device">
  <diagram name="ページ1" id="IO-W-D94eDJJUeEhSEI_">
    <mxGraphModel dx="1005" dy="635" grid="1" gridSize="10" guides="1" tooltips="1" connect="1" arrows="1" fold="1" page="1" pageScale="1" pageWidth="827" pageHeight="1169" math="0" shadow="0">
      <root>
        <mxCell id="0" />
        <mxCell id="1" parent="0" />
        <mxCell id="nk7pTIWP-s3VITfa0-_w-1" value="" style="rounded=0;whiteSpace=wrap;html=1;" vertex="1" parent="1">
          <mxGeometry x="80" y="80" width="440" height="350" as="geometry" />
        </mxCell>
        <mxCell id="nk7pTIWP-s3VITfa0-_w-2" value="device viewport" style="text;html=1;align=center;verticalAlign=middle;whiteSpace=wrap;rounded=0;" vertex="1" parent="1">
          <mxGeometry x="80" y="80" width="100" height="30" as="geometry" />
        </mxCell>
        <mxCell id="nk7pTIWP-s3VITfa0-_w-3" value="" style="rounded=0;whiteSpace=wrap;html=1;" vertex="1" parent="1">
          <mxGeometry x="90" y="110" width="420" height="310" as="geometry" />
        </mxCell>
        <mxCell id="nk7pTIWP-s3VITfa0-_w-4" value="layout" style="text;html=1;align=center;verticalAlign=middle;whiteSpace=wrap;rounded=0;" vertex="1" parent="1">
          <mxGeometry x="90" y="110" width="60" height="30" as="geometry" />
        </mxCell>
        <mxCell id="nk7pTIWP-s3VITfa0-_w-5" value="" style="rounded=0;whiteSpace=wrap;html=1;" vertex="1" parent="1">
          <mxGeometry x="100" y="140" width="400" height="270" as="geometry" />
        </mxCell>
        <mxCell id="nk7pTIWP-s3VITfa0-_w-6" value="page" style="text;html=1;align=center;verticalAlign=middle;whiteSpace=wrap;rounded=0;" vertex="1" parent="1">
          <mxGeometry x="100" y="140" width="60" height="30" as="geometry" />
        </mxCell>
        <mxCell id="nk7pTIWP-s3VITfa0-_w-7" value="" style="rounded=0;whiteSpace=wrap;html=1;" vertex="1" parent="1">
          <mxGeometry x="110" y="170" width="380" height="230" as="geometry" />
        </mxCell>
        <mxCell id="nk7pTIWP-s3VITfa0-_w-8" value="screen size context provider" style="text;html=1;align=center;verticalAlign=middle;whiteSpace=wrap;rounded=0;" vertex="1" parent="1">
          <mxGeometry x="110" y="170" width="170" height="30" as="geometry" />
        </mxCell>
        <mxCell id="nk7pTIWP-s3VITfa0-_w-9" value="" style="rounded=1;whiteSpace=wrap;html=1;align=left;" vertex="1" parent="1">
          <mxGeometry x="120" y="200" width="130" height="100" as="geometry" />
        </mxCell>
        <mxCell id="nk7pTIWP-s3VITfa0-_w-10" value="context" style="text;html=1;align=center;verticalAlign=middle;whiteSpace=wrap;rounded=0;" vertex="1" parent="1">
          <mxGeometry x="120" y="200" width="60" height="30" as="geometry" />
        </mxCell>
        <mxCell id="nk7pTIWP-s3VITfa0-_w-11" value="&lt;font face=&quot;Courier New&quot;&gt;screenSize: {&lt;/font&gt;&lt;div&gt;&lt;font face=&quot;Courier New&quot;&gt;&amp;nbsp; width: 600,&lt;/font&gt;&lt;/div&gt;&lt;div&gt;&lt;font face=&quot;Courier New&quot;&gt;&amp;nbsp; height: 1200,&lt;/font&gt;&lt;/div&gt;&lt;div&gt;&lt;font face=&quot;Courier New&quot;&gt;}&lt;/font&gt;&lt;/div&gt;" style="text;html=1;align=left;verticalAlign=middle;whiteSpace=wrap;rounded=0;" vertex="1" parent="1">
          <mxGeometry x="130" y="230" width="120" height="60" as="geometry" />
        </mxCell>
        <mxCell id="nk7pTIWP-s3VITfa0-_w-12" value="" style="rounded=0;whiteSpace=wrap;html=1;" vertex="1" parent="1">
          <mxGeometry x="260" y="200" width="220" height="190" as="geometry" />
        </mxCell>
        <mxCell id="nk7pTIWP-s3VITfa0-_w-13" value="game container" style="text;html=1;align=center;verticalAlign=middle;whiteSpace=wrap;rounded=0;" vertex="1" parent="1">
          <mxGeometry x="260" y="200" width="100" height="30" as="geometry" />
        </mxCell>
        <mxCell id="nk7pTIWP-s3VITfa0-_w-14" value="" style="rounded=0;whiteSpace=wrap;html=1;" vertex="1" parent="1">
          <mxGeometry x="270" y="230" width="200" height="150" as="geometry" />
        </mxCell>
        <mxCell id="nk7pTIWP-s3VITfa0-_w-15" value="canvas" style="text;html=1;align=center;verticalAlign=middle;whiteSpace=wrap;rounded=0;" vertex="1" parent="1">
          <mxGeometry x="270" y="230" width="60" height="30" as="geometry" />
        </mxCell>
        <mxCell id="nk7pTIWP-s3VITfa0-_w-17" value="&lt;font face=&quot;Courier New&quot;&gt;&amp;nbsp;width: 320&lt;/font&gt;&lt;div&gt;&lt;font face=&quot;Courier New&quot;&gt;&amp;nbsp;height: 640&lt;/font&gt;&lt;/div&gt;&lt;div&gt;&lt;font face=&quot;Courier New&quot;&gt;&amp;nbsp;style:&lt;/font&gt;&lt;/div&gt;&lt;div&gt;&lt;font face=&quot;Courier New&quot;&gt;&amp;nbsp; &amp;nbsp;width: 600&lt;/font&gt;&lt;/div&gt;&lt;div&gt;&lt;font face=&quot;Courier New&quot;&gt;&amp;nbsp; &amp;nbsp;height: 1200&lt;/font&gt;&lt;/div&gt;" style="rounded=1;whiteSpace=wrap;html=1;align=left;" vertex="1" parent="1">
          <mxGeometry x="280" y="260" width="120" height="110" as="geometry" />
        </mxCell>
        <mxCell id="nk7pTIWP-s3VITfa0-_w-19" value="" style="rounded=0;whiteSpace=wrap;html=1;strokeColor=none;fillColor=#FF8000;" vertex="1" parent="1">
          <mxGeometry x="530" y="225" width="170" height="75" as="geometry" />
        </mxCell>
        <mxCell id="nk7pTIWP-s3VITfa0-_w-18" value="&lt;font color=&quot;#ffffff&quot;&gt;&lt;b&gt;width, heightは&lt;/b&gt;&lt;/font&gt;&lt;div&gt;&lt;font color=&quot;#ffffff&quot;&gt;&lt;b&gt;Game初期化時に指定した&lt;/b&gt;&lt;/font&gt;&lt;div&gt;&lt;font color=&quot;#ffffff&quot;&gt;&lt;b&gt;width, heightが使用される&lt;/b&gt;&lt;/font&gt;&lt;/div&gt;&lt;/div&gt;" style="text;html=1;align=left;verticalAlign=middle;whiteSpace=wrap;rounded=0;" vertex="1" parent="1">
          <mxGeometry x="540" y="235" width="150" height="50" as="geometry" />
        </mxCell>
        <mxCell id="nk7pTIWP-s3VITfa0-_w-20" value="" style="rounded=0;whiteSpace=wrap;html=1;strokeColor=none;fillColor=#FF8000;" vertex="1" parent="1">
          <mxGeometry x="530" y="315" width="180" height="85" as="geometry" />
        </mxCell>
        <mxCell id="nk7pTIWP-s3VITfa0-_w-21" value="&lt;font color=&quot;#ffffff&quot;&gt;&lt;b&gt;style.width, style.heightは&lt;/b&gt;&lt;/font&gt;&lt;div&gt;&lt;font color=&quot;#ffffff&quot;&gt;&lt;b&gt;canvasの縦横比と&lt;br&gt;画面の大きさから&lt;br&gt;自動計算される&lt;/b&gt;&lt;/font&gt;&lt;/div&gt;" style="text;html=1;align=left;verticalAlign=middle;whiteSpace=wrap;rounded=0;" vertex="1" parent="1">
          <mxGeometry x="540" y="327.5" width="160" height="60" as="geometry" />
        </mxCell>
        <mxCell id="nk7pTIWP-s3VITfa0-_w-22" value="" style="endArrow=classic;html=1;rounded=0;entryX=0;entryY=0.5;entryDx=0;entryDy=0;exitX=0.833;exitY=0.273;exitDx=0;exitDy=0;exitPerimeter=0;strokeColor=#FF8000;strokeWidth=2;" edge="1" parent="1" source="nk7pTIWP-s3VITfa0-_w-17" target="nk7pTIWP-s3VITfa0-_w-19">
          <mxGeometry width="50" height="50" relative="1" as="geometry">
            <mxPoint x="390" y="450" as="sourcePoint" />
            <mxPoint x="440" y="400" as="targetPoint" />
            <Array as="points">
              <mxPoint x="490" y="290" />
              <mxPoint x="490" y="263" />
            </Array>
          </mxGeometry>
        </mxCell>
        <mxCell id="nk7pTIWP-s3VITfa0-_w-23" value="" style="endArrow=classic;html=1;rounded=0;entryX=0;entryY=0.5;entryDx=0;entryDy=0;strokeColor=#FF8000;strokeWidth=2;" edge="1" parent="1" target="nk7pTIWP-s3VITfa0-_w-20">
          <mxGeometry width="50" height="50" relative="1" as="geometry">
            <mxPoint x="380" y="315" as="sourcePoint" />
            <mxPoint x="540" y="308" as="targetPoint" />
            <Array as="points">
              <mxPoint x="500" y="315" />
              <mxPoint x="500" y="358" />
            </Array>
          </mxGeometry>
        </mxCell>
        <mxCell id="nk7pTIWP-s3VITfa0-_w-24" value="" style="rounded=0;whiteSpace=wrap;html=1;strokeColor=none;fillColor=#FF8000;" vertex="1" parent="1">
          <mxGeometry x="530" y="140" width="170" height="75" as="geometry" />
        </mxCell>
        <mxCell id="nk7pTIWP-s3VITfa0-_w-25" value="&lt;font color=&quot;#ffffff&quot;&gt;&lt;b&gt;Game初期化時に&lt;br&gt;canvasが作成され、&lt;/b&gt;&lt;/font&gt;&lt;div&gt;&lt;font color=&quot;#ffffff&quot;&gt;&lt;b&gt;parent要素に挿入される&lt;/b&gt;&lt;/font&gt;&lt;/div&gt;" style="text;html=1;align=left;verticalAlign=middle;whiteSpace=wrap;rounded=0;" vertex="1" parent="1">
          <mxGeometry x="540" y="150" width="150" height="50" as="geometry" />
        </mxCell>
        <mxCell id="nk7pTIWP-s3VITfa0-_w-26" value="" style="endArrow=classic;html=1;rounded=0;entryX=0;entryY=0.5;entryDx=0;entryDy=0;strokeColor=#FF8000;strokeWidth=2;" edge="1" parent="1" target="nk7pTIWP-s3VITfa0-_w-24">
          <mxGeometry width="50" height="50" relative="1" as="geometry">
            <mxPoint x="400" y="246" as="sourcePoint" />
            <mxPoint x="414" y="239" as="targetPoint" />
            <Array as="points">
              <mxPoint x="420" y="246" />
              <mxPoint x="420" y="178" />
            </Array>
          </mxGeometry>
        </mxCell>
        <mxCell id="nk7pTIWP-s3VITfa0-_w-27" value="" style="rounded=0;whiteSpace=wrap;html=1;strokeColor=none;fillColor=#FF8000;" vertex="1" parent="1">
          <mxGeometry x="530" y="57.5" width="170" height="75" as="geometry" />
        </mxCell>
        <mxCell id="nk7pTIWP-s3VITfa0-_w-28" value="&lt;font color=&quot;#ffffff&quot;&gt;&lt;b&gt;画面リサイズ時に&lt;/b&gt;&lt;/font&gt;&lt;div&gt;&lt;font color=&quot;#ffffff&quot;&gt;&lt;b&gt;画面サイズを取得し、&lt;/b&gt;&lt;/font&gt;&lt;/div&gt;&lt;div&gt;&lt;font color=&quot;#ffffff&quot;&gt;&lt;b&gt;コンテキストに設定する&lt;/b&gt;&lt;/font&gt;&lt;/div&gt;" style="text;html=1;align=left;verticalAlign=middle;whiteSpace=wrap;rounded=0;" vertex="1" parent="1">
          <mxGeometry x="540" y="67.5" width="150" height="50" as="geometry" />
        </mxCell>
        <mxCell id="nk7pTIWP-s3VITfa0-_w-29" value="" style="endArrow=classic;html=1;rounded=0;entryX=0;entryY=0.5;entryDx=0;entryDy=0;strokeColor=#FF8000;strokeWidth=2;" edge="1" parent="1" target="nk7pTIWP-s3VITfa0-_w-27">
          <mxGeometry width="50" height="50" relative="1" as="geometry">
            <mxPoint x="390" y="185" as="sourcePoint" />
            <mxPoint x="482" y="117.5" as="targetPoint" />
            <Array as="points">
              <mxPoint x="403" y="185" />
              <mxPoint x="403" y="95" />
            </Array>
          </mxGeometry>
        </mxCell>
        <mxCell id="nk7pTIWP-s3VITfa0-_w-31" value="&lt;font color=&quot;#ffffff&quot; style=&quot;font-size: 8px;&quot;&gt;tsx&lt;/font&gt;" style="rounded=1;whiteSpace=wrap;html=1;strokeColor=none;fillColor=#0066CC;" vertex="1" parent="1">
          <mxGeometry x="143" y="118.75" width="30" height="12.5" as="geometry" />
        </mxCell>
        <mxCell id="nk7pTIWP-s3VITfa0-_w-33" value="&lt;font color=&quot;#ffffff&quot; style=&quot;font-size: 8px;&quot;&gt;tsx&lt;/font&gt;" style="rounded=1;whiteSpace=wrap;html=1;strokeColor=none;fillColor=#0066CC;" vertex="1" parent="1">
          <mxGeometry x="150" y="148.75" width="30" height="12.5" as="geometry" />
        </mxCell>
        <mxCell id="nk7pTIWP-s3VITfa0-_w-34" value="&lt;font color=&quot;#ffffff&quot; style=&quot;font-size: 8px;&quot;&gt;tsx&lt;/font&gt;" style="rounded=1;whiteSpace=wrap;html=1;strokeColor=none;fillColor=#0066CC;" vertex="1" parent="1">
          <mxGeometry x="280" y="178.75" width="30" height="12.5" as="geometry" />
        </mxCell>
        <mxCell id="nk7pTIWP-s3VITfa0-_w-36" value="&lt;font color=&quot;#ffffff&quot; style=&quot;font-size: 8px;&quot;&gt;context provider&lt;/font&gt;" style="rounded=1;whiteSpace=wrap;html=1;strokeColor=none;fillColor=#FF8000;" vertex="1" parent="1">
          <mxGeometry x="312" y="178.75" width="68" height="12.5" as="geometry" />
        </mxCell>
        <mxCell id="nk7pTIWP-s3VITfa0-_w-37" value="&lt;font color=&quot;#ffffff&quot; style=&quot;font-size: 8px;&quot;&gt;tsx&lt;/font&gt;" style="rounded=1;whiteSpace=wrap;html=1;strokeColor=none;fillColor=#0066CC;" vertex="1" parent="1">
          <mxGeometry x="360" y="208.75" width="30" height="12.5" as="geometry" />
        </mxCell>
        <mxCell id="nk7pTIWP-s3VITfa0-_w-38" value="&lt;font color=&quot;#ffffff&quot; style=&quot;font-size: 8px;&quot;&gt;dom elemnt&lt;/font&gt;" style="rounded=1;whiteSpace=wrap;html=1;strokeColor=none;fillColor=#009900;" vertex="1" parent="1">
          <mxGeometry x="330" y="238.75" width="60" height="12.5" as="geometry" />
        </mxCell>
      </root>
    </mxGraphModel>
  </diagram>
</mxfile>
